<svg width="1920" height="975" viewBox="0 0 1920 975" fill="none" xmlns="http://www.w3.org/2000/svg">
<g opacity="0.7">
<mask id="mask0_95_1366" style="mask-type:alpha" maskUnits="userSpaceOnUse" x="209" y="-163" width="1737" height="1188">
<rect x="209.445" y="-162.816" width="1735.68" height="1187.41" fill="white"/>
</mask>
<g mask="url(#mask0_95_1366)">
<g filter="url(#filter0_f_95_1366)">
<path d="M168.553 309.55L471.774 309.55C471.774 309.55 1078.22 964.886 168.553 1113.17L168.553 309.55Z" fill="#EEF3FF"/>
</g>
<g filter="url(#filter1_f_95_1366)">
<path d="M1970.48 1052.2L210.006 1052.2C210.006 1052.2 1501.35 119.741 1791.43 516.403C2065.89 891.705 1970.48 1052.2 1970.48 1052.2Z" fill="#5280FF" fill-opacity="0.06"/>
</g>
<g filter="url(#filter2_f_95_1366)">
<path d="M1015.9 645.748L1626.7 1206.44C1626.7 1206.44 1181.5 864.961 782.504 1184.09L1015.9 645.748Z" fill="#00FFFF" fill-opacity="0.04"/>
</g>
<g filter="url(#filter3_f_95_1366)">
<path d="M489.693 432.923L-260.75 34.3128C-260.75 34.3128 267.002 259.941 561.078 -141.706L489.693 432.923Z" fill="#00FFFF" fill-opacity="0.04"/>
</g>
<g filter="url(#filter4_f_95_1366)">
<path d="M197.323 279.467L197.323 -165.461C197.323 -165.461 505.937 160.902 374.654 234.215C250.442 303.58 197.323 279.467 197.323 279.467Z" fill="#5280FF" fill-opacity="0.08"/>
</g>
</g>
<g opacity="0.6">
<path d="M-39 1105.51C10.8647 1055.56 212.925 792.014 575.997 792.014C1029.84 792.014 1283.5 1406.08 1967.87 898.809" stroke="white" stroke-width="0.987317"/>
<path d="M-39 554.654C10.8647 504.701 212.925 241.159 575.997 241.159C1029.84 241.159 1283.5 855.229 1967.87 347.954" stroke="white" stroke-width="0.987317"/>
<path d="M-39 1087.74C10.8647 1037.79 212.925 774.244 575.997 774.244C1029.84 774.244 1283.5 1388.31 1967.87 881.039" stroke="white" stroke-width="0.987317"/>
<path d="M-39 1069.97C10.8647 1020.02 212.925 756.475 575.997 756.475C1029.84 756.475 1283.5 1370.54 1967.87 863.269" stroke="white" stroke-width="0.987317"/>
<path d="M-39 1052.2C10.8647 1002.25 212.925 738.705 575.997 738.705C1029.84 738.705 1283.5 1352.78 1967.87 845.5" stroke="white" stroke-width="0.987317"/>
<path d="M-39 1034.43C10.8647 984.478 212.925 720.936 575.997 720.936C1029.84 720.936 1283.5 1335.01 1967.87 827.73" stroke="white" stroke-width="0.987317"/>
<path d="M-39 1016.66C10.8647 966.708 212.925 703.166 575.997 703.166C1029.84 703.166 1283.5 1317.24 1967.87 809.961" stroke="white" stroke-width="0.987317"/>
<path d="M-39 998.891C10.8647 948.939 212.925 685.396 575.997 685.396C1029.84 685.396 1283.5 1299.47 1967.87 792.191" stroke="white" stroke-width="0.987317"/>
<path d="M-39 981.121C10.8647 931.169 212.925 667.627 575.997 667.627C1029.84 667.627 1283.5 1281.7 1967.87 774.422" stroke="white" stroke-width="0.987317"/>
<path d="M-39 963.353C10.8647 913.4 212.925 649.858 575.997 649.858C1029.84 649.858 1283.5 1263.93 1967.87 756.653" stroke="white" stroke-width="0.987317"/>
<path d="M-39 945.582C10.8647 895.63 212.925 632.088 575.997 632.088C1029.84 632.088 1283.5 1246.16 1967.87 738.883" stroke="white" stroke-width="0.987317"/>
<path d="M-39 927.814C10.8647 877.861 212.925 614.319 575.997 614.319C1029.84 614.319 1283.5 1228.39 1967.87 721.114" stroke="white" stroke-width="0.987317"/>
<path d="M-39 910.044C10.8647 860.092 212.925 596.55 575.997 596.55C1029.84 596.55 1283.5 1210.62 1967.87 703.345" stroke="white" stroke-width="0.987317"/>
<path d="M-39 892.275C10.8647 842.322 212.925 578.78 575.997 578.78C1029.84 578.78 1283.5 1192.85 1967.87 685.575" stroke="white" stroke-width="0.987317"/>
<path d="M-39 874.504C10.8647 824.552 212.925 561.01 575.997 561.01C1029.84 561.01 1283.5 1175.08 1967.87 667.805" stroke="white" stroke-width="0.987317"/>
<path d="M-39 856.735C10.8647 806.783 212.925 543.241 575.997 543.241C1029.84 543.241 1283.5 1157.31 1967.87 650.036" stroke="white" stroke-width="0.987317"/>
<path d="M-39 838.966C10.8647 789.014 212.925 525.472 575.997 525.472C1029.84 525.472 1283.5 1139.54 1967.87 632.267" stroke="white" stroke-width="0.987317"/>
<path d="M-39 821.196C10.8647 771.244 212.925 507.702 575.997 507.702C1029.84 507.702 1283.5 1121.77 1967.87 614.496" stroke="white" stroke-width="0.987317"/>
<path d="M-39 803.427C10.8647 753.474 212.925 489.932 575.997 489.932C1029.84 489.932 1283.5 1104 1967.87 596.727" stroke="white" stroke-width="0.987317"/>
<path d="M-39 785.657C10.8647 735.705 212.925 472.163 575.997 472.163C1029.84 472.163 1283.5 1086.23 1967.87 578.957" stroke="white" stroke-width="0.987317"/>
<path d="M-39 767.888C10.8647 717.935 212.925 454.393 575.997 454.393C1029.84 454.393 1283.5 1068.46 1967.87 561.188" stroke="white" stroke-width="0.987317"/>
<path d="M-39 750.118C10.8647 700.166 212.925 436.624 575.997 436.624C1029.84 436.624 1283.5 1050.69 1967.87 543.418" stroke="white" stroke-width="0.987317"/>
<path d="M-39 732.348C10.8647 682.396 212.925 418.854 575.997 418.854C1029.84 418.854 1283.5 1032.92 1967.87 525.648" stroke="white" stroke-width="0.987317"/>
<path d="M-39 714.579C10.8647 664.627 212.925 401.085 575.997 401.085C1029.84 401.085 1283.5 1015.16 1967.87 507.88" stroke="white" stroke-width="0.987317"/>
<path d="M-39 696.809C10.8647 646.857 212.925 383.315 575.997 383.315C1029.84 383.315 1283.5 997.385 1967.87 490.11" stroke="white" stroke-width="0.987317"/>
<path d="M-39 679.04C10.8647 629.087 212.925 365.545 575.997 365.545C1029.84 365.545 1283.5 979.616 1967.87 472.34" stroke="white" stroke-width="0.987317"/>
<path d="M-39 661.27C10.8647 611.318 212.925 347.776 575.997 347.776C1029.84 347.776 1283.5 961.846 1967.87 454.571" stroke="white" stroke-width="0.987317"/>
<path d="M-39 643.502C10.8647 593.549 212.925 330.007 575.997 330.007C1029.84 330.007 1283.5 944.078 1967.87 436.802" stroke="white" stroke-width="0.987317"/>
<path d="M-39 625.732C10.8647 575.779 212.925 312.237 575.997 312.237C1029.84 312.237 1283.5 926.308 1967.87 419.032" stroke="white" stroke-width="0.987317"/>
<path d="M-39 607.962C10.8647 558.01 212.925 294.468 575.997 294.468C1029.84 294.468 1283.5 908.538 1967.87 401.263" stroke="white" stroke-width="0.987317"/>
<path d="M-39 590.192C10.8647 540.24 212.925 276.698 575.997 276.698C1029.84 276.698 1283.5 890.768 1967.87 383.493" stroke="white" stroke-width="0.987317"/>
<path d="M-39 572.423C10.8647 522.471 212.925 258.929 575.997 258.929C1029.84 258.929 1283.5 872.999 1967.87 365.724" stroke="white" stroke-width="0.987317"/>
</g>
<g opacity="0.8">
<path d="M64.1279 346.937C113.993 317.383 316.053 161.461 679.125 161.461C1132.97 161.461 1386.63 524.769 2071 224.645" stroke="white" stroke-width="0.987317"/>
<path d="M64.1279 21.0305C113.993 -8.52328 316.053 -164.445 679.125 -164.445C1132.97 -164.445 1386.63 198.863 2071 -101.261" stroke="white" stroke-width="0.987317"/>
<path d="M64.1279 336.424C113.993 306.87 316.053 150.949 679.125 150.949C1132.97 150.949 1386.63 514.256 2071 214.133" stroke="white" stroke-width="0.987317"/>
<path d="M64.1279 325.911C113.993 296.357 316.053 140.436 679.125 140.436C1132.97 140.436 1386.63 503.743 2071 203.619" stroke="white" stroke-width="0.987317"/>
<path d="M64.1279 315.398C113.993 285.844 316.053 129.922 679.125 129.922C1132.97 129.922 1386.63 493.23 2071 193.106" stroke="white" stroke-width="0.987317"/>
<path d="M64.1279 304.884C113.993 275.331 316.053 119.409 679.125 119.409C1132.97 119.409 1386.63 482.717 2071 182.593" stroke="white" stroke-width="0.987317"/>
<path d="M64.1279 294.371C113.993 264.818 316.053 108.896 679.125 108.896C1132.97 108.896 1386.63 472.203 2071 172.08" stroke="white" stroke-width="0.987317"/>
<path d="M64.1279 283.859C113.993 254.305 316.053 98.3833 679.125 98.3833C1132.97 98.3833 1386.63 461.691 2071 161.567" stroke="white" stroke-width="0.987317"/>
<path d="M64.1279 273.345C113.993 243.791 316.053 87.8696 679.125 87.8696C1132.97 87.8696 1386.63 451.177 2071 151.054" stroke="white" stroke-width="0.987317"/>
<path d="M64.1279 262.832C113.993 233.278 316.053 77.3569 679.125 77.3569C1132.97 77.3569 1386.63 440.664 2071 140.541" stroke="white" stroke-width="0.987317"/>
<path d="M64.1279 252.319C113.993 222.765 316.053 66.8438 679.125 66.8438C1132.97 66.8438 1386.63 430.151 2071 130.028" stroke="white" stroke-width="0.987317"/>
<path d="M64.1279 241.806C113.993 212.252 316.053 56.3306 679.125 56.3306C1132.97 56.3306 1386.63 419.638 2071 119.514" stroke="white" stroke-width="0.987317"/>
<path d="M64.1279 231.293C113.993 201.739 316.053 45.8174 679.125 45.8174C1132.97 45.8174 1386.63 409.125 2071 109.001" stroke="white" stroke-width="0.987317"/>
<path d="M64.1279 220.78C113.993 191.226 316.053 35.3042 679.125 35.3042C1132.97 35.3042 1386.63 398.612 2071 98.4881" stroke="white" stroke-width="0.987317"/>
<path d="M64.1279 210.266C113.993 180.713 316.053 24.791 679.125 24.791C1132.97 24.791 1386.63 388.098 2071 87.9749" stroke="white" stroke-width="0.987317"/>
<path d="M64.1279 199.754C113.993 170.2 316.053 14.2783 679.125 14.2783C1132.97 14.2783 1386.63 377.586 2071 77.4622" stroke="white" stroke-width="0.987317"/>
<path d="M64.1279 189.24C113.993 159.687 316.053 3.76514 679.125 3.76514C1132.97 3.76514 1386.63 367.073 2071 66.949" stroke="white" stroke-width="0.987317"/>
<path d="M64.1279 178.727C113.993 149.174 316.053 -6.74805 679.125 -6.74805C1132.97 -6.74805 1386.63 356.559 2071 56.4358" stroke="white" stroke-width="0.987317"/>
<path d="M64.1279 168.214C113.993 138.66 316.053 -17.2612 679.125 -17.2612C1132.97 -17.2612 1386.63 346.046 2071 45.9227" stroke="white" stroke-width="0.987317"/>
<path d="M64.1279 157.701C113.993 128.147 316.053 -27.7744 679.125 -27.7744C1132.97 -27.7744 1386.63 335.533 2071 35.4095" stroke="white" stroke-width="0.987317"/>
<path d="M64.1279 147.188C113.993 117.634 316.053 -38.2876 679.125 -38.2876C1132.97 -38.2876 1386.63 325.02 2071 24.8963" stroke="white" stroke-width="0.987317"/>
<path d="M64.1279 136.675C113.993 107.121 316.053 -48.8008 679.125 -48.8008C1132.97 -48.8008 1386.63 314.507 2071 14.3831" stroke="white" stroke-width="0.987317"/>
<path d="M64.1279 126.161C113.993 96.6076 316.053 -59.314 679.125 -59.314C1132.97 -59.314 1386.63 303.993 2071 3.86993" stroke="white" stroke-width="0.987317"/>
<path d="M64.1279 115.649C113.993 86.0949 316.053 -69.8267 679.125 -69.8267C1132.97 -69.8267 1386.63 293.481 2071 -6.64277" stroke="white" stroke-width="0.987317"/>
<path d="M64.1279 105.135C113.993 75.5817 316.053 -80.3398 679.125 -80.3398C1132.97 -80.3398 1386.63 282.968 2071 -17.1559" stroke="white" stroke-width="0.987317"/>
<path d="M64.1279 94.6223C113.993 65.0685 316.053 -90.853 679.125 -90.853C1132.97 -90.853 1386.63 272.454 2071 -27.6691" stroke="white" stroke-width="0.987317"/>
<path d="M64.1279 84.1091C113.993 54.5553 316.053 -101.366 679.125 -101.366C1132.97 -101.366 1386.63 261.941 2071 -38.1823" stroke="white" stroke-width="0.987317"/>
<path d="M64.1279 73.5959C113.993 44.0422 316.053 -111.879 679.125 -111.879C1132.97 -111.879 1386.63 251.428 2071 -48.6955" stroke="white" stroke-width="0.987317"/>
<path d="M64.1279 63.0827C113.993 33.529 316.053 -122.393 679.125 -122.393C1132.97 -122.393 1386.63 240.915 2071 -59.2087" stroke="white" stroke-width="0.987317"/>
<path d="M64.1279 52.5695C113.993 23.0158 316.053 -132.906 679.125 -132.906C1132.97 -132.906 1386.63 230.402 2071 -69.7219" stroke="white" stroke-width="0.987317"/>
<path d="M64.1279 42.0564C113.993 12.5026 316.053 -143.419 679.125 -143.419C1132.97 -143.419 1386.63 219.888 2071 -80.2351" stroke="white" stroke-width="0.987317"/>
<path d="M64.1279 31.5437C113.993 1.98991 316.053 -153.932 679.125 -153.932C1132.97 -153.932 1386.63 209.376 2071 -90.7477" stroke="white" stroke-width="0.987317"/>
</g>
</g>
<defs>
<filter id="filter0_f_95_1366" x="0.708847" y="141.706" width="836.93" height="1139.3" filterUnits="userSpaceOnUse" color-interpolation-filters="sRGB">
<feFlood flood-opacity="0" result="BackgroundImageFix"/>
<feBlend mode="normal" in="SourceGraphic" in2="BackgroundImageFix" result="shape"/>
<feGaussianBlur stdDeviation="83.9219" result="effect1_foregroundBlur_95_1366"/>
</filter>
<filter id="filter1_f_95_1366" x="42.162" y="250.304" width="2112.21" height="969.74" filterUnits="userSpaceOnUse" color-interpolation-filters="sRGB">
<feFlood flood-opacity="0" result="BackgroundImageFix"/>
<feBlend mode="normal" in="SourceGraphic" in2="BackgroundImageFix" result="shape"/>
<feGaussianBlur stdDeviation="83.9219" result="effect1_foregroundBlur_95_1366"/>
</filter>
<filter id="filter2_f_95_1366" x="614.66" y="477.904" width="1179.89" height="896.375" filterUnits="userSpaceOnUse" color-interpolation-filters="sRGB">
<feFlood flood-opacity="0" result="BackgroundImageFix"/>
<feBlend mode="normal" in="SourceGraphic" in2="BackgroundImageFix" result="shape"/>
<feGaussianBlur stdDeviation="83.9219" result="effect1_foregroundBlur_95_1366"/>
</filter>
<filter id="filter3_f_95_1366" x="-428.594" y="-309.55" width="1157.52" height="910.317" filterUnits="userSpaceOnUse" color-interpolation-filters="sRGB">
<feFlood flood-opacity="0" result="BackgroundImageFix"/>
<feBlend mode="normal" in="SourceGraphic" in2="BackgroundImageFix" result="shape"/>
<feGaussianBlur stdDeviation="83.9219" result="effect1_foregroundBlur_95_1366"/>
</filter>
<filter id="filter4_f_95_1366" x="29.4794" y="-333.305" width="545.538" height="784.672" filterUnits="userSpaceOnUse" color-interpolation-filters="sRGB">
<feFlood flood-opacity="0" result="BackgroundImageFix"/>
<feBlend mode="normal" in="SourceGraphic" in2="BackgroundImageFix" result="shape"/>
<feGaussianBlur stdDeviation="83.9219" result="effect1_foregroundBlur_95_1366"/>
</filter>
</defs>
</svg>
