<svg width="40" height="40" viewBox="0 0 40 40" fill="none" xmlns="http://www.w3.org/2000/svg">
<rect width="40" height="40" rx="8" fill="#311D05"/>
<path fill-rule="evenodd" clip-rule="evenodd" d="M16.5056 18.5634L20.0017 15.0689L23.4991 18.5662L25.5322 16.5318L20.0017 11L14.4711 16.5304L16.5056 18.5634ZM11 20.0003L13.0338 17.9666L15.0675 20.0003L13.0338 22.034L11 20.0003ZM20.0016 24.9324L16.5056 21.4365L14.4683 23.4681L14.4711 23.4709L20.0016 28.9999L25.5322 23.4681L25.5336 23.4667L23.4991 21.4351L20.0016 24.9324ZM24.9321 20.0007L26.9659 17.967L28.9996 20.0007L26.9659 22.0344L24.9321 20.0007ZM20.0013 17.9348L22.0643 19.9991H22.0657L22.0643 20.0005L20.0013 22.0648L17.9384 20.0034L17.9355 19.9991L17.9384 19.9963L18.2995 19.6352L18.4758 19.4603L20.0013 17.9348Z" fill="#F3BA2F"/>
</svg>
