<svg width="60" height="60" viewBox="0 0 60 60" fill="none" xmlns="http://www.w3.org/2000/svg">
<path d="M0 14C0 6.26801 6.26801 0 14 0H16C17.1046 0 18 0.89543 18 2C18 3.10457 17.1046 4 16 4H14C8.4772 4 4 8.4772 4 14V16C4 17.1046 3.10457 18 2 18C0.89543 18 0 17.1046 0 16V14Z" fill="#B4B6AF"/>
<path d="M42 2C42 0.89543 42.8954 0 44 0H46C53.732 0 60 6.26801 60 14V16C60 17.1046 59.1046 18 58 18C56.8954 18 56 17.1046 56 16V14C56 8.4772 51.5228 4 46 4H44C42.8954 4 42 3.10457 42 2Z" fill="#B4B6AF"/>
<path d="M2 42C3.10457 42 4 42.8954 4 44V46C4 51.5228 8.4772 56 14 56H16C17.1046 56 18 56.8954 18 58C18 59.1046 17.1046 60 16 60H14C6.26801 60 0 53.732 0 46V44C0 42.8954 0.89543 42 2 42Z" fill="#B4B6AF"/>
<path d="M58 42C59.1046 42 60 42.8954 60 44V46C60 53.732 53.732 60 46 60H44C42.8954 60 42 59.1046 42 58C42 56.8954 42.8954 56 44 56H46C51.5228 56 56 51.5228 56 46V44C56 42.8954 56.8954 42 58 42Z" fill="#B4B6AF"/>
<path fill-rule="evenodd" clip-rule="evenodd" d="M30 22C25.5817 22 22 25.5817 22 30C22 34.4183 25.5817 38 30 38C34.4183 38 38 34.4183 38 30C38 25.5817 34.4183 22 30 22ZM26 30C26 27.7909 27.7909 26 30 26C32.2091 26 34 27.7909 34 30C34 32.2091 32.2091 34 30 34C27.7909 34 26 32.2091 26 30Z" fill="#B4B6AF"/>
<path fill-rule="evenodd" clip-rule="evenodd" d="M14.7465 22.9171C23.1475 13.6943 36.8525 13.6943 45.2535 22.9171L50.4785 28.6532C51.1738 29.4165 51.1738 30.5835 50.4785 31.3468L45.2535 37.0829C36.8525 46.3057 23.1475 46.3057 14.7465 37.0829L9.52147 31.3468C8.82617 30.5835 8.82617 29.4165 9.52147 28.6532L14.7465 22.9171ZM42.2965 25.6107C35.482 18.1298 24.5179 18.1298 17.7035 25.6107L13.7054 30L17.7035 34.3893C24.5179 41.8702 35.482 41.8702 42.2965 34.3893L46.2946 30L42.2965 25.6107Z" fill="#B4B6AF"/>
</svg>
