<svg width="39" height="62" viewBox="0 0 39 62" fill="none" xmlns="http://www.w3.org/2000/svg">
<path d="M18.395 55.9615C17.5044 54.3917 16.6038 52.8902 15.7081 51.4493C13.2401 51.7577 11.1105 52.3567 9.58046 53.1429C8.23699 53.833 7.43342 54.5964 7.43342 55.3194C7.43342 56.2243 8.62015 57.1571 10.5333 57.9332C12.7998 58.8483 15.9694 59.4145 19.4996 59.4145C23.0299 59.4145 26.1997 58.8483 28.4658 57.9332C30.3814 57.1597 31.5657 56.2269 31.5657 55.3194C31.5657 54.5964 30.7621 53.833 29.4187 53.1429C27.8886 52.3568 25.759 51.7552 23.291 51.4493C22.3954 52.8927 21.4923 54.3967 20.5991 55.9665C20.2483 56.5833 19.4696 56.7931 18.8625 56.4367C18.661 56.3179 18.5043 56.1536 18.3973 55.9615L18.395 55.9615ZM14.198 49.0631C12.8197 46.9271 11.4663 44.9201 10.1776 43.0115C4.47044 34.551 0 27.9277 0 19.8134C0 14.3482 2.18437 9.3934 5.7122 5.80897C9.24501 2.21944 14.1212 0 19.4997 0C24.881 0 29.7551 2.21944 33.2828 5.80393C36.8156 9.39346 39 14.3479 39 19.8129C39 27.9246 34.5293 34.5498 28.8224 43.0084C27.5337 44.9194 26.1803 46.9265 24.802 49.0626C27.0684 49.4417 29.0513 50.0586 30.5639 50.8346C32.7881 51.9771 34.1141 53.5267 34.1141 55.3164C34.1141 57.3867 32.3129 59.1486 29.3996 60.3266C26.8396 61.3605 23.3342 62 19.4978 62C15.6614 62 12.1588 61.3605 9.59593 60.3266C6.68512 59.1486 4.88143 57.3867 4.88143 55.3164C4.88143 53.5267 6.20994 51.9746 8.43162 50.8346C9.94674 50.056 11.9296 49.4393 14.1936 49.0626L14.198 49.0631ZM19.4972 10.8679C21.9254 10.8679 24.1246 11.8715 25.7194 13.4893C27.3166 15.1071 28.3043 17.3467 28.3043 19.8139C28.3043 22.2836 27.3191 24.5207 25.7243 26.1385C24.1321 27.7563 21.9303 28.7599 19.4997 28.7599C17.074 28.7599 14.8722 27.7563 13.2775 26.136C11.6828 24.5182 10.6951 22.2811 10.6951 19.8139C10.6951 17.3442 11.6803 15.1071 13.275 13.4893L13.3472 13.4211C14.9369 11.8412 17.1088 10.868 19.4997 10.868L19.4972 10.8679ZM12.2773 41.5559C14.5512 44.9254 17.0267 48.5933 19.4972 52.777C21.9701 48.5935 24.4456 44.9254 26.7171 41.5559C32.173 33.4694 36.4469 27.1373 36.4469 19.8164C36.4469 15.059 34.5487 10.7515 31.4861 7.6349C28.4185 4.52062 24.179 2.59439 19.4971 2.59439C14.8153 2.59439 10.5755 4.52314 7.50819 7.6349C4.44312 10.7517 2.54733 15.0594 2.54733 19.8164C2.54733 27.1366 6.82161 33.4694 12.2773 41.5559Z" fill="#B4B6AF"/>
</svg>
