<svg width="55" height="56" viewBox="0 0 55 56" fill="none" xmlns="http://www.w3.org/2000/svg">
<path d="M25.7179 51.4359C31.9077 51.4359 37.5744 49.2564 42.0205 45.5949L46.8154 50.3897C47.1641 50.7385 47.6 50.9128 48.0359 50.9128C48.4718 50.9128 48.9077 50.7385 49.2564 50.3897C49.9538 49.6923 49.9538 48.6462 49.2564 47.9487L44.5487 43.241C48.8205 38.6205 51.4359 32.5179 51.4359 25.7179C51.4359 11.5077 39.9282 0 25.7179 0C11.5077 0 0 11.5077 0 25.7179C0 39.9282 11.5949 51.4359 25.7179 51.4359ZM25.7179 3.48718C38.0103 3.48718 47.9487 13.4256 47.9487 25.7179C47.9487 38.0103 38.0103 47.9487 25.7179 47.9487C13.4256 47.9487 3.48718 38.0103 3.48718 25.7179C3.48718 13.4256 13.5128 3.48718 25.7179 3.48718Z" fill="#B4B6AF"/>
<path d="M50.3893 53.9639L51.4354 55.01C51.7842 55.3588 52.2201 55.5331 52.656 55.5331C53.0919 55.5331 53.5277 55.3588 53.8765 55.01C54.5739 54.3126 54.5739 53.2664 53.8765 52.569L52.8303 51.4357C52.1329 50.7382 51.0867 50.7382 50.3893 51.4357C49.6919 52.1331 49.6919 53.2664 50.3893 53.9639Z" fill="#B4B6AF"/>
<path d="M14.8207 35.7438C15.7797 35.7438 16.5643 34.9591 16.5643 34.0002V27.0258C16.5643 26.0668 15.7797 25.2822 14.8207 25.2822C13.8618 25.2822 13.0771 26.0668 13.0771 27.0258V34.0002C13.0771 34.9591 13.8618 35.7438 14.8207 35.7438Z" fill="#B4B6AF"/>
<path d="M24.4106 24.4974C25.3696 24.4974 26.1542 23.7128 26.1542 22.7538V21.7949C26.1542 20.8359 25.3696 20.0513 24.4106 20.0513C23.4516 20.0513 22.667 20.8359 22.667 21.7949V22.7538C22.667 23.7128 23.4516 24.4974 24.4106 24.4974Z" fill="#B4B6AF"/>
<path d="M24.4106 35.7434C25.3696 35.7434 26.1542 34.9588 26.1542 33.9998V27.6357C26.1542 26.6767 25.3696 25.8921 24.4106 25.8921C23.4516 25.8921 22.667 26.6767 22.667 27.6357V33.9998C22.667 34.9588 23.4516 35.7434 24.4106 35.7434Z" fill="#B4B6AF"/>
<path d="M34.0004 35.7434C34.9594 35.7434 35.744 34.9588 35.744 33.9998V16.5639C35.744 15.6049 34.9594 14.8203 34.0004 14.8203C33.0415 14.8203 32.2568 15.6049 32.2568 16.5639V33.9998C32.2568 34.9588 33.0415 35.7434 34.0004 35.7434Z" fill="#B4B6AF"/>
</svg>
